<?xml version="1.0" encoding="utf-8"?>
<svg width="52px" height="377px" viewBox="0 0 52 377" version="1.1" xmlns:xlink="http://www.w3.org/1999/xlink" xmlns="http://www.w3.org/2000/svg">
  <path d="M0 41.5L0 56.5L50.5 20L50.5 20L50.5 20L50.5 0L0 41.5Z" transform="translate(0.5 15.5)" id="New-shape-3" fill="#00B0F0" fill-opacity="0.8392157" fill-rule="evenodd" stroke="none" />
  <path d="M0 0L0 37L50.5 0.499998L50.5 -5.55112e-17L0 0Z" transform="translate(0.5 0)" id="New-shape-3-Copy-9-Difference" fill="#00B0F0" fill-opacity="0.8392157" fill-rule="evenodd" stroke="none" />
  <path d="M50.5 37L50.5 0L0 36.5L0 37L50.5 37Z" transform="translate(1 340)" id="New-shape-3-Copy-10-Difference" fill="#00B0F0" fill-opacity="0.8392157" fill-rule="evenodd" stroke="none" />
  <path d="M0 41.5L0 56.5L50.5 20L50.5 20L50.5 20L50.5 0L0 41.5Z" transform="translate(0 51.5)" id="New-shape-3-Copy" fill="#00B0F0" fill-opacity="0.8392157" fill-rule="evenodd" stroke="none" />
  <path d="M0 41.5L0 56.5L50.5 20L50.5 20L50.5 20L50.5 0L0 41.5Z" transform="translate(0.5 87.5)" id="New-shape-3-Copy-2" fill="#00B0F0" fill-opacity="0.8392157" fill-rule="evenodd" stroke="none" />
  <path d="M0 41.5L0 56.5L50.5 20L50.5 20L50.5 20L50.5 0L0 41.5Z" transform="translate(0.5 123.5)" id="New-shape-3-Copy-3" fill="#00B0F0" fill-opacity="0.8392157" fill-rule="evenodd" stroke="none" />
  <path d="M0 41.5L0 56.5L50.5 20L50.5 20L50.5 20L50.5 0L0 41.5Z" transform="translate(0 159.5)" id="New-shape-3-Copy-4" fill="#00B0F0" fill-opacity="0.8392157" fill-rule="evenodd" stroke="none" />
  <path d="M0 41.5L0 56.5L50.5 20L50.5 20L50.5 20L50.5 0L0 41.5Z" transform="translate(0.5 195.5)" id="New-shape-3-Copy-5" fill="#00B0F0" fill-opacity="0.8392157" fill-rule="evenodd" stroke="none" />
  <path d="M0 41.5L0 56.5L50.5 20L50.5 20L50.5 20L50.5 0L0 41.5Z" transform="translate(0.5 231.5)" id="New-shape-3-Copy-6" fill="#00B0F0" fill-opacity="0.8392157" fill-rule="evenodd" stroke="none" />
  <path d="M0 41.5L0 56.5L50.5 20L50.5 20L50.5 20L50.5 0L0 41.5Z" transform="translate(0 267.5)" id="New-shape-3-Copy-7" fill="#00B0F0" fill-opacity="0.8392157" fill-rule="evenodd" stroke="none" />
  <path d="M0 41.5L0 56.5L50.5 20L50.5 20L50.5 20L50.5 0L0 41.5Z" transform="translate(0.5 303.5)" id="New-shape-3-Copy-8" fill="#00B0F0" fill-opacity="0.8392157" fill-rule="evenodd" stroke="none" />
</svg>