<?xml version="1.0" encoding="utf-8"?>
<svg width="129px" height="226px" viewBox="0 0 129 226" version="1.1" xmlns:xlink="http://www.w3.org/1999/xlink" xmlns="http://www.w3.org/2000/svg">
  <path d="M108.725 111.631Q125.293 128.455 156.589 128.455Q161.805 128.455 167.557 127.585Q173.31 126.716 178.398 125.386Q183.486 124.057 186.657 122.727L183.793 113.318Q181.952 113.932 177.759 115.21Q173.566 116.489 168.094 117.563Q162.623 118.636 156.998 118.636Q130.765 118.636 117.086 104.472Q104.002 90.9234 103.433 66.4751L170 66.4751L170 87.626Q170.764 91.5388 173.822 93.9375Q177.145 96.5455 181.441 97.6705Q185.736 98.7955 189.316 98.7955Q197.447 98.7955 202.228 94.9091Q207.009 91.0227 209.31 84.6563Q211.611 78.2898 212.327 70.6705Q213.043 63.0511 213.043 55.6364Q213.043 45.1023 209.387 35.1818Q205.731 25.2614 198.444 17.3097Q191.157 9.35797 180.341 4.67898Q169.526 5.99062e-06 155.157 4.87802e-06Q135.418 3.34968e-06 121.305 7.64488Q107.191 15.2898 99.6738 29.5824Q93.5788 41.1713 92.4258 56.4751L0 56.4751L0 66.4751L92.1878 66.4751Q92.8741 95.5353 108.725 111.631ZM103.742 56.4751Q104.835 44.2783 109.492 34.9261Q115.577 22.7046 127.032 16.1591Q138.486 9.61364 154.543 9.61364Q166.765 9.61365 175.765 13.5Q184.765 17.3864 190.671 23.9318Q196.577 30.4773 199.492 38.6591Q202.407 46.8409 202.407 55.4318Q202.407 72.9205 199.876 81.0511Q197.344 89.1818 189.52 89.1818Q184.918 89.1818 182.515 85.9091Q180.111 82.6364 180.111 78.3409L180.111 59.4773L180 59.4773L180 56.4751L103.742 56.4751Z" transform="matrix(1.3085892E-06 1 -1 1.3085892E-06 128.45453 12.53051)" id="@-Difference-Difference-Union" fill="#00B0F0" fill-rule="evenodd" stroke="none" />
  <path d="M23.25 0.00164818L-3.12822e-07 31.0041M23.25 0L50 31.0025" transform="matrix(1.0000001 -5.147884E-09 5.147884E-09 1.0000001 42.20584 5)" id="Line-Union" fill="none" fill-rule="evenodd" stroke="#00B0F0" stroke-width="10" stroke-linecap="square" />
</svg>