<?xml version="1.0" encoding="utf-8"?>
<svg width="96px" height="132px" viewBox="0 0 96 132" version="1.1" xmlns:xlink="http://www.w3.org/1999/xlink" xmlns="http://www.w3.org/2000/svg">
  <defs>
    <linearGradient x1="-0.0349" y1="0.1702" x2="1.0083" y2="0.929" id="gradient_1">
      <stop offset="0" stop-color="#FFFFFF" stop-opacity="0.101960786" />
      <stop offset="0.14" stop-color="#FFFFFF" stop-opacity="0.078431375" />
      <stop offset="0.61" stop-color="#FFFFFF" stop-opacity="0.019607844" />
      <stop offset="1" stop-color="#FFFFFF" stop-opacity="0" />
    </linearGradient>
  </defs>
  <g id="firebase">
    <path d="M0 105.749L16.1322 2.52083C16.3294 1.25483 17.314 0.256826 18.5772 0.0422263C19.8404 -0.172374 21.0992 0.445026 21.7032 1.57493L38.3867 32.6922L45.0367 20.0307C45.5517 19.0517 46.567 18.4387 47.6733 18.4387C48.7796 18.4387 49.7948 19.0517 50.3099 20.0307L95.3326 105.749L0 105.749L0 105.749Z" transform="translate(0.052001953 0)" id="Shape" fill="#FFA000" fill-rule="evenodd" stroke="none" />
    <path d="M55.7326 32.8602L38.379 0L0 73.0715L55.7326 32.8602L55.7326 32.8602Z" transform="translate(0.052108765 32.67743)" id="Shape" fill="#F57C00" fill-rule="evenodd" stroke="none" />
    <path d="M95.3332 78.942L82.9772 2.48168C82.7905 1.38368 82.0069 0.481678 80.9457 0.141678C79.8845 -0.198322 78.7231 0.0846786 77.935 0.87188L0 78.9409L43.1234 103.124C45.8314 104.636 49.1294 104.636 51.8374 103.124L95.3332 78.9409L95.3332 78.942Z" transform="translate(0.052108765 26.80695)" id="Shape" fill="#FFCA28" fill-rule="evenodd" stroke="none" />
    <path d="M83.0292 29.2869C82.8425 28.1889 82.0589 27.2869 80.9977 26.9469C79.9365 26.6069 78.7751 26.8899 77.987 27.6771L62.5187 43.1847L50.3552 20.0285C49.8402 19.0495 48.8249 18.4365 47.7186 18.4365C46.6123 18.4365 45.5971 19.0495 45.082 20.0285L38.432 32.69L21.7477 1.57323C21.1427 0.44303 19.8824 -0.17337 18.6177 0.0428305C17.353 0.259031 16.3717 1.25953 16.1767 2.52653L0.052 105.747L0 105.747L0.052 105.807L0.4765 106.015L77.9645 28.4378C78.7522 27.6463 79.9165 27.3618 80.9805 27.7008C82.0445 28.0398 82.8295 28.9453 83.0143 30.0465L95.2661 105.822L95.3853 105.747L83.0293 29.2867L83.0292 29.2869ZM0.193497 105.606L16.1842 3.25653C16.379 1.98953 17.3626 0.989028 18.6262 0.772828C19.8898 0.556628 21.1502 1.17283 21.7562 2.30323L38.4387 33.4205L45.0887 20.759C45.6037 19.78 46.619 19.167 47.7253 19.167C48.8316 19.167 49.8468 19.78 50.3619 20.759L62.2786 43.423L0.192795 105.606L0.193497 105.606Z" transform="translate(0 0.0016937256)" id="Shape" fill="#FFFFFF" fill-opacity="0.2" fill-rule="evenodd" stroke="none" />
    <path d="M51.8375 24.1384C49.1295 25.6504 45.8315 25.6504 43.1235 24.1384L0.1043 0.0222015L0 0.685204L43.1234 24.8612C45.8314 26.3732 49.1294 26.3732 51.8374 24.8612L95.3332 0.685204L95.2215 0L51.8375 24.1387L51.8375 24.1384Z" transform="translate(0.052001953 105.064026)" id="Shape" fill="#A52714" fill-opacity="0.2" fill-rule="evenodd" stroke="none" />
    <path d="M82.687 29.2742C82.501 28.1765 81.72 27.2742 80.6626 26.9362C79.6052 26.5982 78.4478 26.8792 77.6624 27.6662L62.2473 43.166L50.1273 20.0205C49.614 19.0419 48.6023 18.4291 47.5 18.4291C46.3977 18.4291 45.386 19.0419 44.8727 20.0205L38.245 32.6765L21.62 1.57257C21.017 0.442871 19.7612 -0.173429 18.502 0.0428715C17.2428 0.259171 16.2626 1.25887 16.0685 2.52557L0 105.701L42.9727 129.866C45.6712 131.378 48.9577 131.378 51.6563 129.866L95 105.701L82.687 29.274L82.687 29.2742Z" transform="translate(0.21870422 0.030258179)" id="b" fill="url(#gradient_1)" fill-rule="evenodd" stroke="none" />
  </g>
</svg>