<?xml version="1.0" encoding="utf-8"?>
<svg width="296px" height="46px" viewBox="0 0 296 46" version="1.1" xmlns:xlink="http://www.w3.org/1999/xlink" xmlns="http://www.w3.org/2000/svg">
  <defs>
    <linearGradient x1="0.5" y1="0" x2="0.5" y2="1" id="gradient_1">
      <stop offset="0" stop-color="#16A068" stop-opacity="0" />
      <stop offset="1" stop-color="#00B0F0" />
    </linearGradient>
    <linearGradient x1="0" y1="0" x2="1" y2="0" id="gradient_2">
      <stop offset="0" stop-color="#FFFFFF" stop-opacity="0" />
      <stop offset="1" stop-color="#00B0F0" />
    </linearGradient>
  </defs>
  <g id="Group-2" transform="matrix(-1.1756835E-06 -1 -1 1.1756835E-06 294.73615 44.914124)">
    <g id="Group" transform="matrix(0.9999999 -3.537534E-08 3.537534E-08 0.9999999 0 0)">
      <path d="M0 0L0 53.0008L20.6126 53.0008L20.6126 53.0008L20.6126 53.0008" transform="matrix(1 4.4496958E-14 -1.12464623E-13 0.99999994 21.801056 -6.1035156E-05)" id="Line" fill="none" fill-rule="evenodd" stroke="url(#gradient_1)" stroke-width="1" stroke-linecap="square" />
      <path d="M1 0L1 5.55008" transform="translate(42.414154 53.36975)" id="Line-2" fill="none" fill-rule="evenodd" stroke="#00B0F0" stroke-width="1" stroke-linecap="square" />
      <path d="M0 0L42.8108 1.00003" transform="matrix(1 4.4496958E-14 -1.12464623E-13 0.99999994 3.0517578E-05 57.927185)" id="Line-3" fill="none" fill-rule="evenodd" stroke="#00B0F0" stroke-width="1" stroke-linecap="square" />
    </g>
  </g>
  <path d="M235.3 0.5L0 0" transform="translate(0.5 44.953186)" id="Line" fill="none" fill-rule="evenodd" stroke="url(#gradient_2)" stroke-width="1" stroke-linecap="square" />
</svg>