<?xml version="1.0" encoding="utf-8"?>
<svg width="512px" height="193px" viewBox="0 0 512 193" version="1.1" xmlns:xlink="http://www.w3.org/1999/xlink" xmlns="http://www.w3.org/2000/svg">
  <defs>
    <path d="M0 0L512 0L512 193L0 193L0 0Z" id="path_1" />
    <clipPath id="mask_1">
      <use xlink:href="#path_1" />
    </clipPath>
  </defs>
  <g id="pwa">
    <path d="M0 0L512 0L512 193L0 193L0 0Z" id="Background" fill="none" fill-rule="evenodd" stroke="none" />
    <g clip-path="url(#mask_1)">
      <g id="Group">
        <path d="M0 158.244L14.7908 120.841L57.4977 120.841L37.2302 64.1022L62.5784 0L135.182 192.769L81.6393 192.769L69.2328 158.244L0 158.244Z" transform="translate(376.81836 3.0517578E-05)" id="Polygon" fill="#848484" fill-rule="evenodd" stroke="none" />
        <path d="M199.517 192.769L277.24 0L225.712 0.00025615L172.545 124.572L134.738 0.000512296L95.131 0.000512296L54.5361 124.572L25.9077 67.8073L0 147.624L26.304 192.769L77.0138 192.769L113.698 81.0553L148.674 192.769L199.517 192.769Z" transform="translate(131.62282 0.00030517578)" id="Polygon" fill="#5A0FC8" fill-rule="evenodd" stroke="none" />
        <path d="M48.9117 126.595L80.6502 126.595C90.2644 126.595 98.8254 125.522 106.333 123.376L114.541 98.0883L137.481 27.4139C135.734 24.6434 133.738 22.0239 131.495 19.5558C119.716 6.51845 102.484 0 79.7959 0L0 0L0 192.769L48.9117 192.769L48.9117 126.595L48.9117 126.595ZM90.9225 44.3485C95.5231 48.9788 97.8232 55.175 97.8232 62.9376C97.8232 70.7598 95.8001 76.9636 91.7542 81.549C87.3188 86.6441 79.1517 89.1915 67.2535 89.1915L48.9117 89.1915L48.9117 37.4026L67.3883 37.4026C78.4774 37.4026 86.3221 39.7179 90.9225 44.3485L90.9225 44.3485Z" id="Shape" fill="#848484" fill-rule="evenodd" stroke="none" />
      </g>
    </g>
  </g>
</svg>