<?xml version="1.0" encoding="utf-8"?>
<svg width="51px" height="345px" viewBox="0 0 51 345" version="1.1" xmlns:xlink="http://www.w3.org/1999/xlink" xmlns="http://www.w3.org/2000/svg">
  <path d="M0 41.5L0 56.5L50.5 20L50.5 20L50.5 20L50.5 0L0 41.5Z" transform="translate(0.5 0)" id="New-shape-3" fill="#00B0F0" fill-opacity="0.8392157" fill-rule="evenodd" stroke="none" />
  <path d="M0 41.5L0 56.5L50.5 20L50.5 20L50.5 20L50.5 0L0 41.5Z" transform="translate(0 36)" id="New-shape-3-Copy" fill="#00B0F0" fill-opacity="0.8392157" fill-rule="evenodd" stroke="none" />
  <path d="M0 41.5L0 56.5L50.5 20L50.5 20L50.5 20L50.5 0L0 41.5Z" transform="translate(0.5 72)" id="New-shape-3-Copy-2" fill="#00B0F0" fill-opacity="0.8392157" fill-rule="evenodd" stroke="none" />
  <path d="M0 41.5L0 56.5L50.5 20L50.5 20L50.5 20L50.5 0L0 41.5Z" transform="translate(0.5 108)" id="New-shape-3-Copy-3" fill="#00B0F0" fill-opacity="0.8392157" fill-rule="evenodd" stroke="none" />
  <path d="M0 41.5L0 56.5L50.5 20L50.5 20L50.5 20L50.5 0L0 41.5Z" transform="translate(0 144)" id="New-shape-3-Copy-4" fill="#00B0F0" fill-opacity="0.8392157" fill-rule="evenodd" stroke="none" />
  <path d="M0 41.5L0 56.5L50.5 20L50.5 20L50.5 20L50.5 0L0 41.5Z" transform="translate(0.5 180)" id="New-shape-3-Copy-5" fill="#00B0F0" fill-opacity="0.8392157" fill-rule="evenodd" stroke="none" />
  <path d="M0 41.5L0 56.5L50.5 20L50.5 20L50.5 20L50.5 0L0 41.5Z" transform="translate(0.5 216)" id="New-shape-3-Copy-6" fill="#00B0F0" fill-opacity="0.8392157" fill-rule="evenodd" stroke="none" />
  <path d="M0 41.5L0 56.5L50.5 20L50.5 20L50.5 20L50.5 0L0 41.5Z" transform="translate(0 252)" id="New-shape-3-Copy-7" fill="#00B0F0" fill-opacity="0.8392157" fill-rule="evenodd" stroke="none" />
  <path d="M0 41.5L0 56.5L50.5 20L50.5 20L50.5 20L50.5 0L0 41.5Z" transform="translate(0.5 288)" id="New-shape-3-Copy-8" fill="#00B0F0" fill-opacity="0.8392157" fill-rule="evenodd" stroke="none" />
</svg>